<svg xmlns="http://www.w3.org/2000/svg" viewBox="0 0 1600 900" preserveAspectRatio="xMidYMid slice">
<defs><linearGradient id="sky" x1="0" y1="0" x2="0" y2="1"><stop offset="0" stop-color="#2e1d10"/><stop offset="1" stop-color="#0d0704"/></linearGradient><radialGradient id="g" cx=".5" cy=".5" r=".5"><stop offset="0" stop-color="#ffb347"/><stop offset="1" stop-color="#ffb347" stop-opacity="0"/></radialGradient><radialGradient id="fireglow" cx=".5" cy=".5" r=".5"><stop offset="0" stop-color="#ffb347"/><stop offset="1" stop-color="#ffb347" stop-opacity="0"/></radialGradient><radialGradient id="vig" cx=".5" cy=".5" r=".72"><stop offset=".55" stop-color="#000" stop-opacity="0"/><stop offset="1" stop-color="#000" stop-opacity=".78"/></radialGradient></defs>
<rect width="1600" height="900" fill="url(#sky)"/><ellipse cx="21.5" cy="560.9" rx="27" ry="36.6" fill="#0f0905" opacity=".9"/><ellipse cx="977.6" cy="581.6" rx="33.1" ry="38.1" fill="#0f0905" opacity=".9"/><ellipse cx="1548.2" cy="585.1" rx="32.8" ry="38.6" fill="#0f0905" opacity=".9"/><ellipse cx="1124.2" cy="564.8" rx="29.2" ry="39" fill="#0f0905" opacity=".9"/><ellipse cx="828.4" cy="573.3" rx="29" ry="38.8" fill="#0f0905" opacity=".9"/><ellipse cx="384.8" cy="576.7" rx="24.8" ry="43.6" fill="#0f0905" opacity=".9"/><ellipse cx="1076.1" cy="578.8" rx="34.5" ry="39.2" fill="#0f0905" opacity=".9"/><ellipse cx="15.8" cy="562.5" rx="23.9" ry="43.5" fill="#0f0905" opacity=".9"/><ellipse cx="1359.5" cy="585" rx="26.3" ry="46.3" fill="#0f0905" opacity=".9"/><ellipse cx="79.4" cy="561.5" rx="26.9" ry="39.9" fill="#0f0905" opacity=".9"/><ellipse cx="1529" cy="566" rx="31" ry="41.7" fill="#0f0905" opacity=".9"/><ellipse cx="1221.1" cy="570.6" rx="28.9" ry="37.7" fill="#0f0905" opacity=".9"/><ellipse cx="45.2" cy="587.4" rx="35.3" ry="35.2" fill="#0f0905" opacity=".9"/><ellipse cx="948.5" cy="567.2" rx="31.3" ry="36.9" fill="#0f0905" opacity=".9"/><ellipse cx="707" cy="586.5" rx="23.4" ry="43.9" fill="#0f0905" opacity=".9"/><ellipse cx="409" cy="571.1" rx="27.2" ry="35.9" fill="#0f0905" opacity=".9"/><ellipse cx="1079.8" cy="581.5" rx="28.4" ry="41.8" fill="#0f0905" opacity=".9"/><ellipse cx="868.1" cy="566.2" rx="29.4" ry="45.7" fill="#0f0905" opacity=".9"/><ellipse cx="1023.7" cy="560.2" rx="32" ry="46.1" fill="#0f0905" opacity=".9"/><ellipse cx="1087.6" cy="581.5" rx="29.4" ry="45.7" fill="#0f0905" opacity=".9"/><ellipse cx="921.7" cy="588.1" rx="32.1" ry="47.3" fill="#0f0905" opacity=".9"/><ellipse cx="403.3" cy="571.3" rx="27.1" ry="34.5" fill="#0f0905" opacity=".9"/><ellipse cx="807.3" cy="565.8" rx="27.2" ry="34.4" fill="#0f0905" opacity=".9"/><ellipse cx="1103.8" cy="574.8" rx="33.3" ry="37.1" fill="#0f0905" opacity=".9"/><ellipse cx="393.4" cy="566.3" rx="30.5" ry="45.6" fill="#0f0905" opacity=".9"/><ellipse cx="508.1" cy="585.2" rx="31.5" ry="37.7" fill="#0f0905" opacity=".9"/><ellipse cx="1599.8" cy="580.5" rx="28" ry="34.4" fill="#0f0905" opacity=".9"/><ellipse cx="1543.9" cy="578.2" rx="24.2" ry="38.1" fill="#0f0905" opacity=".9"/><ellipse cx="781.5" cy="573.6" rx="35.9" ry="40.9" fill="#0f0905" opacity=".9"/><ellipse cx="225.7" cy="579.7" rx="24.1" ry="41.3" fill="#0f0905" opacity=".9"/><ellipse cx="1057.1" cy="579.4" rx="33" ry="38.5" fill="#0f0905" opacity=".9"/><ellipse cx="1233.1" cy="562.9" rx="32.2" ry="34.1" fill="#0f0905" opacity=".9"/><ellipse cx="1536.6" cy="564.9" rx="33.6" ry="44.5" fill="#0f0905" opacity=".9"/><ellipse cx="788.5" cy="565.2" rx="31.3" ry="36.1" fill="#0f0905" opacity=".9"/><ellipse cx="249.5" cy="574.5" rx="35.5" ry="45" fill="#0f0905" opacity=".9"/><ellipse cx="835.7" cy="573.5" rx="35" ry="34.9" fill="#0f0905" opacity=".9"/><ellipse cx="1173.3" cy="582.1" rx="25" ry="44.5" fill="#0f0905" opacity=".9"/><ellipse cx="117.7" cy="570.2" rx="27.5" ry="43.6" fill="#0f0905" opacity=".9"/><ellipse cx="1361.1" cy="564.6" rx="24.2" ry="41.8" fill="#0f0905" opacity=".9"/><ellipse cx="555" cy="587.2" rx="28.5" ry="44.7" fill="#0f0905" opacity=".9"/><ellipse cx="1370.4" cy="583" rx="28.3" ry="45.4" fill="#0f0905" opacity=".9"/><ellipse cx="123.6" cy="560.4" rx="34.1" ry="42.9" fill="#0f0905" opacity=".9"/><ellipse cx="590.3" cy="574.3" rx="26.1" ry="45.4" fill="#0f0905" opacity=".9"/><ellipse cx="1033.4" cy="583" rx="28" ry="45" fill="#0f0905" opacity=".9"/><ellipse cx="1470.6" cy="571.5" rx="23.4" ry="37" fill="#0f0905" opacity=".9"/><ellipse cx="1205.8" cy="568.2" rx="35.9" ry="38" fill="#0f0905" opacity=".9"/><ellipse cx="249.3" cy="573.7" rx="23.3" ry="42.8" fill="#0f0905" opacity=".9"/><ellipse cx="1052.4" cy="581.5" rx="26.7" ry="47.8" fill="#0f0905" opacity=".9"/><ellipse cx="980.9" cy="576" rx="22.9" ry="47.9" fill="#0f0905" opacity=".9"/><ellipse cx="1552.7" cy="582.1" rx="24.5" ry="41.7" fill="#0f0905" opacity=".9"/><ellipse cx="64.6" cy="577.4" rx="24" ry="44.4" fill="#0f0905" opacity=".9"/><ellipse cx="32.6" cy="564.1" rx="25.2" ry="37.8" fill="#0f0905" opacity=".9"/><ellipse cx="472.2" cy="569.5" rx="30.9" ry="45.3" fill="#0f0905" opacity=".9"/><ellipse cx="1242" cy="586.2" rx="26.8" ry="44.6" fill="#0f0905" opacity=".9"/><ellipse cx="1276.5" cy="563.9" rx="35.3" ry="39.7" fill="#0f0905" opacity=".9"/><ellipse cx="533.5" cy="572.2" rx="31.7" ry="38.9" fill="#0f0905" opacity=".9"/><ellipse cx="879.4" cy="568.9" rx="29.7" ry="43.7" fill="#0f0905" opacity=".9"/><ellipse cx="1540.1" cy="569.3" rx="22.3" ry="40.3" fill="#0f0905" opacity=".9"/><ellipse cx="1139.7" cy="575.6" rx="22" ry="36.3" fill="#0f0905" opacity=".9"/><ellipse cx="1153.7" cy="566.9" rx="35.3" ry="42" fill="#0f0905" opacity=".9"/><rect y="590" width="1600" height="24" fill="#1b100a"/><rect x="116" y="470" width="8" height="110" fill="#1a0f08"/><ellipse cx="120" cy="464" rx="9" ry="16" fill="#ffb347"/><ellipse cx="120" cy="464" rx="90" ry="70" fill="url(#fireglow)" opacity="0.55"/><rect x="388" y="470" width="8" height="110" fill="#1a0f08"/><ellipse cx="392" cy="464" rx="9" ry="16" fill="#ffb347"/><ellipse cx="392" cy="464" rx="90" ry="70" fill="url(#fireglow)" opacity="0.55"/><rect x="660" y="470" width="8" height="110" fill="#1a0f08"/><ellipse cx="664" cy="464" rx="9" ry="16" fill="#ffb347"/><ellipse cx="664" cy="464" rx="90" ry="70" fill="url(#fireglow)" opacity="0.55"/><rect x="932" y="470" width="8" height="110" fill="#1a0f08"/><ellipse cx="936" cy="464" rx="9" ry="16" fill="#ffb347"/><ellipse cx="936" cy="464" rx="90" ry="70" fill="url(#fireglow)" opacity="0.55"/><rect x="1204" y="470" width="8" height="110" fill="#1a0f08"/><ellipse cx="1208" cy="464" rx="9" ry="16" fill="#ffb347"/><ellipse cx="1208" cy="464" rx="90" ry="70" fill="url(#fireglow)" opacity="0.55"/><rect x="1476" y="470" width="8" height="110" fill="#1a0f08"/><ellipse cx="1480" cy="464" rx="9" ry="16" fill="#ffb347"/><ellipse cx="1480" cy="464" rx="90" ry="70" fill="url(#fireglow)" opacity="0.55"/><ellipse cx="800" cy="900" rx="900" ry="300" fill="#3a2614"/><ellipse cx="800" cy="900" rx="900" ry="300" fill="none" stroke="#5a3a22" stroke-width="12"/><circle cx="1201.6" cy="539.1" r="1.1" fill="#ffd18a" opacity="0.5"/><circle cx="1002.9" cy="342.8" r="1.7" fill="#ffd18a" opacity="0.3"/><circle cx="222.6" cy="472.3" r="2.7" fill="#ffd18a" opacity="0.4"/><circle cx="631.1" cy="579.6" r="2.8" fill="#ffd18a" opacity="0.4"/><circle cx="1001.9" cy="369.1" r="1" fill="#ffd18a" opacity="0.4"/><circle cx="1175" cy="379" r="1.6" fill="#ffd18a" opacity="0.4"/><circle cx="108" cy="559.5" r="1.3" fill="#ffd18a" opacity="0.4"/><circle cx="342.3" cy="536.7" r="1.4" fill="#ffd18a" opacity="0.5"/><circle cx="1307.5" cy="421" r="2.8" fill="#ffd18a" opacity="0.3"/><circle cx="1090.2" cy="496.7" r="2" fill="#ffd18a" opacity="0.4"/><circle cx="1092.5" cy="303.9" r="2.3" fill="#ffd18a" opacity="0.3"/><circle cx="403.3" cy="398.1" r="1.6" fill="#ffd18a" opacity="0.3"/><circle cx="709.6" cy="549.2" r="2.8" fill="#ffd18a" opacity="0.4"/><circle cx="1371.6" cy="515.1" r="2" fill="#ffd18a" opacity="0.5"/><circle cx="1487" cy="301.3" r="2.1" fill="#ffd18a" opacity="0.4"/><circle cx="568.9" cy="492" r="2.2" fill="#ffd18a" opacity="0.4"/><circle cx="1063.5" cy="314.2" r="2.8" fill="#ffd18a" opacity="0.4"/><circle cx="330.9" cy="470.3" r="2.4" fill="#ffd18a" opacity="0.3"/><circle cx="116.1" cy="450.7" r="1.2" fill="#ffd18a" opacity="0.5"/><circle cx="1133.1" cy="510.9" r="1.7" fill="#ffd18a" opacity="0.3"/><circle cx="388.5" cy="576.5" r="2.6" fill="#ffd18a" opacity="0.4"/><circle cx="1269.2" cy="409.3" r="2.1" fill="#ffd18a" opacity="0.2"/><circle cx="418.9" cy="347.4" r="1.1" fill="#ffd18a" opacity="0.4"/><circle cx="629" cy="504.8" r="2.7" fill="#ffd18a" opacity="0.4"/><circle cx="168.2" cy="590.3" r="1.3" fill="#ffd18a" opacity="0.2"/><circle cx="576.6" cy="483.6" r="1.9" fill="#ffd18a" opacity="0.5"/><circle cx="148.3" cy="577.8" r="2.1" fill="#ffd18a" opacity="0.2"/><circle cx="1528.6" cy="375.2" r="1.8" fill="#ffd18a" opacity="0.5"/><circle cx="1449.9" cy="497" r="2.3" fill="#ffd18a" opacity="0.4"/><circle cx="1432.1" cy="443.1" r="2.9" fill="#ffd18a" opacity="0.3"/><circle cx="271.2" cy="412" r="1.4" fill="#ffd18a" opacity="0.5"/><circle cx="1543" cy="568.8" r="2.1" fill="#ffd18a" opacity="0.4"/><circle cx="945.3" cy="519.4" r="2.9" fill="#ffd18a" opacity="0.3"/><circle cx="304" cy="329.8" r="2.4" fill="#ffd18a" opacity="0.2"/><circle cx="1068.8" cy="598.6" r="1.3" fill="#ffd18a" opacity="0.4"/><circle cx="922.6" cy="371.3" r="2.9" fill="#ffd18a" opacity="0.3"/><circle cx="1529.9" cy="455" r="2.4" fill="#ffd18a" opacity="0.2"/><circle cx="649.5" cy="571.5" r="2.3" fill="#ffd18a" opacity="0.2"/><circle cx="1436.3" cy="457.7" r="1.5" fill="#ffd18a" opacity="0.5"/><circle cx="156.6" cy="401.1" r="1.9" fill="#ffd18a" opacity="0.4"/><circle cx="343.4" cy="370.1" r="2.6" fill="#ffd18a" opacity="0.4"/><circle cx="1015" cy="575.7" r="2.9" fill="#ffd18a" opacity="0.3"/><circle cx="1382.8" cy="375.1" r="2.9" fill="#ffd18a" opacity="0.2"/><circle cx="873.3" cy="303.1" r="1.6" fill="#ffd18a" opacity="0.3"/><circle cx="889.6" cy="393.3" r="1.7" fill="#ffd18a" opacity="0.5"/><circle cx="735.8" cy="323.2" r="1.3" fill="#ffd18a" opacity="0.4"/><circle cx="1331.5" cy="395.7" r="1.8" fill="#ffd18a" opacity="0.5"/><circle cx="340.2" cy="342.4" r="1.4" fill="#ffd18a" opacity="0.5"/><circle cx="1136.2" cy="509.4" r="2.3" fill="#ffd18a" opacity="0.3"/><circle cx="836.3" cy="461.7" r="1.4" fill="#ffd18a" opacity="0.4"/><rect width="1600" height="900" fill="url(#vig)"/>
</svg>
